<svg width="52" height="60" viewBox="0 0 52 60" fill="none" xmlns="http://www.w3.org/2000/svg">
<path d="M26.98 8.09509L26.9754 9.02684L27.9045 9.09713C40.8187 10.0741 51 20.8367 51 34C51 47.8077 39.8077 59 26 59C12.1923 59 1 47.8077 1 34C1 20.8367 11.1813 10.0741 24.0955 9.09713L25.2225 9.01187L25.0006 7.90363L25 7.90086V4V3H24H16C15.4463 3 15 2.55372 15 2C15 1.44628 15.4463 1 16 1H36C36.5537 1 37 1.44629 37 2C37 2.55371 36.5537 3 36 3H28H27.0049L27 3.99512L26.98 8.09509ZM19 34C19 37.8663 22.1337 41 26 41C29.8663 41 33 37.8663 33 34C33 31.2029 31.3539 28.8202 29 27.7012V18C29 16.3444 27.6589 15 26 15C24.3411 15 23 16.3444 23 18V27.7012C20.6461 28.8202 19 31.2029 19 34Z" fill="#50AC97" stroke="#FFEA00" stroke-width="2"/>
</svg>
