<svg width="17" height="14" viewBox="0 0 17 14" fill="none" xmlns="http://www.w3.org/2000/svg">
<path d="M1 2.83317C1 2.39114 1.17559 1.96722 1.48816 1.65466C1.80072 1.3421 2.22464 1.1665 2.66667 1.1665H14.3333C14.7754 1.1665 15.1993 1.3421 15.5118 1.65466C15.8244 1.96722 16 2.39114 16 2.83317V11.1665C16 11.6085 15.8244 12.0325 15.5118 12.345C15.1993 12.6576 14.7754 12.8332 14.3333 12.8332H2.66667C2.22464 12.8332 1.80072 12.6576 1.48816 12.345C1.17559 12.0325 1 11.6085 1 11.1665V2.83317Z" stroke="#9199A3" stroke-width="2" stroke-linecap="round" stroke-linejoin="round"/>
<path d="M1 2.83301L8.5 7.83301L16 2.83301" stroke="#9199A3" stroke-width="2" stroke-linecap="round" stroke-linejoin="round"/>
</svg>
