<svg width="43" height="58" viewBox="0 0 43 58" fill="none" xmlns="http://www.w3.org/2000/svg">
<path d="M38.1581 14.2368H39.3652L38.5117 13.3833L29.3538 4.22539L28.5002 3.37184V4.57895V12.2105C28.5002 12.7479 28.7137 13.2633 29.0937 13.6433C29.4737 14.0234 29.9891 14.2368 30.5265 14.2368H38.1581ZM35.0119 24.5148L35.0118 24.5147C34.6318 24.1348 34.1165 23.9214 33.5792 23.9214C33.0418 23.9214 32.5265 24.1348 32.1465 24.5147L32.1465 24.5147L21.3686 35.2926L16.696 30.62L16.6961 30.6199L16.6898 30.6139C16.3077 30.2448 15.7958 30.0405 15.2645 30.0451C14.7332 30.0498 14.225 30.2629 13.8493 30.6386C13.4736 31.0143 13.2605 31.5225 13.2559 32.0538C13.2513 32.5851 13.4555 33.0969 13.8246 33.4791L13.8246 33.4791L13.8307 33.4853L21.0151 40.6697L21.3686 41.0232L21.7222 40.6697L35.0118 27.38L35.0119 27.38C35.3917 27 35.6051 26.4847 35.6051 25.9474C35.6051 25.4101 35.3917 24.8948 35.0119 24.5148ZM9.1581 0.5H28.7931L42.237 13.9439V48.8421C42.237 49.5191 41.9681 50.1684 41.4894 50.6471C41.0107 51.1258 40.3614 51.3947 39.6844 51.3947H9.1581C8.4811 51.3947 7.83183 51.1258 7.35312 50.6471C6.87441 50.1684 6.60547 49.5191 6.60547 48.8421V3.05263C6.60547 2.37563 6.87441 1.72636 7.35312 1.24765C7.83183 0.768937 8.4811 0.5 9.1581 0.5Z" fill="#50AC97" stroke="#FF0000"/>
<path d="M0.5 50.3687V9.6582H2.55263V50.3687C2.55263 51.7157 3.08773 53.0076 4.04022 53.9601C4.99271 54.9126 6.28456 55.4477 7.63158 55.4477H36.1316V57.5003H7.63158C5.74017 57.5003 3.92622 56.7489 2.58879 55.4115C1.25136 54.0741 0.5 52.2601 0.5 50.3687Z" fill="#50AC97" stroke="#FF0000"/>
</svg>
