<svg width="46" height="47" viewBox="0 0 46 47" fill="none" xmlns="http://www.w3.org/2000/svg">
<path d="M36.8701 45.9996V45.9997C37.7639 46.0095 38.649 45.8118 39.4587 45.4204L39.4644 45.4177C41.0717 44.6534 42.0536 43.5362 43.0997 41.9381C43.6784 41.0418 44.1753 40.0927 44.5842 39.103L44.5854 39.1001C44.6266 39.0011 44.6665 38.9098 44.6998 38.8337L44.7149 38.7991C44.7151 38.7986 44.7153 38.7981 44.7156 38.7976C44.9413 38.2758 45.1199 37.8292 44.9002 37.235L44.9001 37.2349C44.7382 36.7968 44.3888 36.3453 43.4724 35.4016L43.4721 35.4013C42.6264 34.5297 41.185 33.4591 39.6772 32.4654C38.1835 31.4809 36.6968 30.6188 35.8095 30.1616C34.3235 29.396 33.7021 29.0997 32.9955 29.0997H32.9893C32.2178 29.0997 31.6016 29.4692 30.4867 30.3164L30.4825 30.3196C30.3516 30.4179 30.2261 30.516 30.0956 30.6179C30.0723 30.636 30.0489 30.6543 30.0253 30.6727C29.519 31.0676 29.0898 31.3947 28.6972 31.5843C28.2045 31.8222 27.7608 31.8544 27.2821 31.7499C26.5708 31.595 25.4128 31.0499 24.1336 30.2387C22.8216 29.4067 21.2889 28.2357 19.8263 26.7448C18.3644 25.2547 17.1913 23.6696 16.3512 22.312C15.5334 20.9903 14.97 19.7856 14.8179 19.0629L14.8175 19.0612C14.7204 18.5958 14.7504 18.1649 14.9727 17.6823C15.1514 17.2942 15.4598 16.8689 15.8341 16.3665C15.8342 16.3663 15.8344 16.3661 15.8345 16.3659L15.8471 16.349C15.9731 16.1795 16.0968 16.0129 16.221 15.8396L16.2216 15.8387C16.9412 14.8365 17.343 14.1446 17.3434 13.2955L36.8701 45.9996ZM36.8701 45.9996H36.8591M36.8701 45.9996H36.8591M36.8591 45.9996C35.0992 45.9996 32.4601 45.3481 28.3186 42.9845C23.2505 40.0812 19.3629 37.4224 14.3418 32.3067C9.49042 27.3539 7.15346 24.1799 3.84886 18.037L3.84875 18.0368M36.8591 45.9996L3.84875 18.0368M3.84875 18.0368C0.154225 11.1729 0.914029 7.83098 1.45989 6.63868L1.46046 6.63743M3.84875 18.0368L1.46046 6.63743M1.46046 6.63743C2.21018 4.99393 3.30764 3.99497 4.87444 2.92587C5.75229 2.33866 6.68091 1.83538 7.64853 1.4223L7.64855 1.42235M1.46046 6.63743L7.64855 1.42235M7.64855 1.42235L7.65808 1.41817M7.64855 1.42235L7.65808 1.41817M7.65808 1.41817C7.76599 1.37077 7.86576 1.32583 7.9538 1.28574L7.9538 1.28575M7.65808 1.41817L7.9538 1.28575M7.9538 1.28575L7.95742 1.28408M7.9538 1.28575L7.95742 1.28408M7.95742 1.28408C8.45712 1.05412 8.87788 0.883659 9.43261 1.09841L9.43556 1.09954M7.95742 1.28408L9.43556 1.09954M9.43556 1.09954C9.85739 1.2613 10.2986 1.61313 11.2257 2.54841L11.2262 2.54889M9.43556 1.09954L11.2262 2.54889M11.2262 2.54889C12.0831 3.41227 13.1416 4.85722 14.1199 6.38042M11.2262 2.54889L14.1199 6.38042M14.1199 6.38042C15.0929 7.89526 15.9392 9.41288 16.3833 10.3837L14.1199 6.38042ZM16.3834 10.3838C17.041 11.8267 17.3426 12.5298 17.3434 13.2954L16.3834 10.3838Z" fill="#50AC97" stroke="#008D07" stroke-width="2"/>
</svg>
