<svg width="65" height="65" viewBox="0 0 65 65" fill="none" xmlns="http://www.w3.org/2000/svg">
<mask id="path-1-inside-1_3_74" fill="white">
<path d="M65 32.5C65 38.9279 63.0939 45.2114 59.5228 50.556C55.9516 55.9006 50.8758 60.0662 44.9372 62.5261C38.9986 64.9859 32.464 65.6295 26.1596 64.3755C19.8552 63.1215 14.0642 60.0262 9.51904 55.481C4.97384 50.9357 1.87851 45.1448 0.624493 38.8404C-0.629526 32.536 0.0140817 26.0014 2.47393 20.0628C4.93378 14.1242 9.09938 9.04838 14.444 5.47724C19.7886 1.90609 26.0721 0 32.5 0C36.768 0 40.9941 0.840637 44.9372 2.47391C48.8803 4.10719 52.4631 6.50112 55.481 9.51903C58.4989 12.5369 60.8928 16.1197 62.5261 20.0628C64.1594 24.0059 65 28.232 65 32.5ZM47.6232 25.0903H35.6158C35.271 25.0892 34.9406 24.9518 34.6968 24.708C34.453 24.4642 34.3155 24.1338 34.3145 23.789V11.8842H18.789C18.4449 11.8864 18.1156 12.0243 17.8727 12.268C17.6298 12.5117 17.4929 12.8415 17.4918 13.1855V51.6379C17.4929 51.982 17.6298 52.3118 17.8727 52.5554C18.1156 52.7991 18.4449 52.9371 18.789 52.9392H46.3259C46.6707 52.9381 47.0011 52.8007 47.2449 52.5569C47.4887 52.3131 47.6262 51.9827 47.6273 51.6379L47.6232 25.0903ZM43.9122 37.1675H21.4081V40.4146H43.9122V37.1675ZM43.9122 44.6511H21.4081V47.9023H43.9122V44.6511ZM30.9401 27.7052C30.938 28.2929 30.7814 28.8697 30.486 29.3776C30.1906 29.8856 29.7667 30.307 29.257 30.5993C28.7522 30.9197 28.1971 31.1529 27.615 31.289V32.0074C27.6249 32.1841 27.5987 32.3611 27.5379 32.5274C27.4771 32.6936 27.383 32.8457 27.2613 32.9744C27.1397 33.1031 26.9931 33.2055 26.8305 33.2756C26.6679 33.3456 26.4927 33.3818 26.3157 33.3818C26.1386 33.3818 25.9635 33.3456 25.8009 33.2756C25.6383 33.2055 25.4917 33.1031 25.37 32.9744C25.2484 32.8457 25.1543 32.6936 25.0935 32.5274C25.0327 32.3611 25.0065 32.1841 25.0164 32.0074V31.3095C24.6566 31.2297 24.3048 31.117 23.9655 30.9729C23.3997 30.7397 22.8985 30.3736 22.5041 29.9056C22.3004 29.6427 22.2051 29.3118 22.2377 28.9808C22.2704 28.6498 22.4285 28.3439 22.6796 28.1259C22.9308 27.9078 23.2558 27.7942 23.5881 27.8084C23.9204 27.8225 24.2347 27.9634 24.4663 28.202C24.5908 28.3558 24.7497 28.4781 24.9302 28.5591C25.1377 28.6488 25.3536 28.7176 25.5747 28.7644C25.8051 28.8092 26.0383 28.838 26.2726 28.8506C26.8258 28.8502 27.3688 28.7013 27.8448 28.4195C28.3374 28.0952 28.3374 27.8325 28.3374 27.7052C28.3367 27.5045 28.2638 27.3108 28.1322 27.1593C27.9842 26.9942 27.8093 26.8554 27.615 26.7488C27.4111 26.6433 27.1945 26.5646 26.9704 26.5148C26.7612 26.4707 26.548 26.4487 26.3342 26.4491C25.9657 26.4513 25.5976 26.4225 25.234 26.3629C24.7417 26.2806 24.2644 26.1257 23.8177 25.9031C23.2958 25.6417 22.8354 25.2723 22.4672 24.8194C21.9555 24.2026 21.6714 23.4286 21.6626 22.6273C21.6742 22.0191 21.8423 21.4243 22.1508 20.9001C22.4593 20.3759 22.8977 19.9401 23.4237 19.6346C23.915 19.33 24.4531 19.1081 25.0164 18.9778V18.2923C25.0164 17.9471 25.1535 17.6162 25.3976 17.3721C25.6416 17.1281 25.9726 16.991 26.3177 16.991C26.6629 16.991 26.9939 17.1281 27.2379 17.3721C27.482 17.6162 27.6191 17.9471 27.6191 18.2923V19.0148C27.9869 19.1061 28.3456 19.2311 28.6905 19.3883C29.168 19.6036 29.6031 19.9025 29.9754 20.2709C30.0964 20.3917 30.1925 20.5351 30.2581 20.693C30.3237 20.8509 30.3575 21.0201 30.3577 21.1911C30.3579 21.362 30.3244 21.5314 30.2592 21.6894C30.1939 21.8474 30.0982 21.991 29.9774 22.1121C29.8567 22.2331 29.7133 22.3291 29.5554 22.3947C29.3975 22.4603 29.2283 22.4942 29.0573 22.4944C28.8863 22.4946 28.717 22.4611 28.559 22.3959C28.4009 22.3306 28.2573 22.2349 28.1363 22.1141C27.9875 21.967 27.8138 21.8474 27.6232 21.7611C27.4113 21.6611 27.1898 21.5827 26.9622 21.5271L26.8925 21.5148C26.7147 21.4688 26.5335 21.4372 26.3506 21.4204C25.8101 21.4182 25.2788 21.5599 24.8112 21.8309C24.6585 21.9043 24.5277 22.0165 24.4319 22.1562C24.3361 22.2959 24.2786 22.4584 24.2652 22.6273C24.2769 22.8312 24.3547 23.0257 24.4869 23.1814C24.6219 23.3467 24.7896 23.4823 24.9795 23.5796C25.1961 23.6853 25.4271 23.7586 25.665 23.7972C25.8862 23.8339 26.11 23.8517 26.3342 23.8506C26.7342 23.8495 27.1333 23.8908 27.5246 23.9737C27.9772 24.0733 28.4148 24.2321 28.826 24.4458C29.3039 24.7031 29.7321 25.0437 30.0903 25.4516C30.6369 26.0753 30.9388 26.876 30.9401 27.7052ZM43.9122 29.6798H34.3719V32.931H43.9122V29.6798ZM37.578 21.8268H47.5534L37.578 11.9089V21.8268Z"/>
</mask>
<path d="M65 32.5C65 38.9279 63.0939 45.2114 59.5228 50.556C55.9516 55.9006 50.8758 60.0662 44.9372 62.5261C38.9986 64.9859 32.464 65.6295 26.1596 64.3755C19.8552 63.1215 14.0642 60.0262 9.51904 55.481C4.97384 50.9357 1.87851 45.1448 0.624493 38.8404C-0.629526 32.536 0.0140817 26.0014 2.47393 20.0628C4.93378 14.1242 9.09938 9.04838 14.444 5.47724C19.7886 1.90609 26.0721 0 32.5 0C36.768 0 40.9941 0.840637 44.9372 2.47391C48.8803 4.10719 52.4631 6.50112 55.481 9.51903C58.4989 12.5369 60.8928 16.1197 62.5261 20.0628C64.1594 24.0059 65 28.232 65 32.5ZM47.6232 25.0903H35.6158C35.271 25.0892 34.9406 24.9518 34.6968 24.708C34.453 24.4642 34.3155 24.1338 34.3145 23.789V11.8842H18.789C18.4449 11.8864 18.1156 12.0243 17.8727 12.268C17.6298 12.5117 17.4929 12.8415 17.4918 13.1855V51.6379C17.4929 51.982 17.6298 52.3118 17.8727 52.5554C18.1156 52.7991 18.4449 52.9371 18.789 52.9392H46.3259C46.6707 52.9381 47.0011 52.8007 47.2449 52.5569C47.4887 52.3131 47.6262 51.9827 47.6273 51.6379L47.6232 25.0903ZM43.9122 37.1675H21.4081V40.4146H43.9122V37.1675ZM43.9122 44.6511H21.4081V47.9023H43.9122V44.6511ZM30.9401 27.7052C30.938 28.2929 30.7814 28.8697 30.486 29.3776C30.1906 29.8856 29.7667 30.307 29.257 30.5993C28.7522 30.9197 28.1971 31.1529 27.615 31.289V32.0074C27.6249 32.1841 27.5987 32.3611 27.5379 32.5274C27.4771 32.6936 27.383 32.8457 27.2613 32.9744C27.1397 33.1031 26.9931 33.2055 26.8305 33.2756C26.6679 33.3456 26.4927 33.3818 26.3157 33.3818C26.1386 33.3818 25.9635 33.3456 25.8009 33.2756C25.6383 33.2055 25.4917 33.1031 25.37 32.9744C25.2484 32.8457 25.1543 32.6936 25.0935 32.5274C25.0327 32.3611 25.0065 32.1841 25.0164 32.0074V31.3095C24.6566 31.2297 24.3048 31.117 23.9655 30.9729C23.3997 30.7397 22.8985 30.3736 22.5041 29.9056C22.3004 29.6427 22.2051 29.3118 22.2377 28.9808C22.2704 28.6498 22.4285 28.3439 22.6796 28.1259C22.9308 27.9078 23.2558 27.7942 23.5881 27.8084C23.9204 27.8225 24.2347 27.9634 24.4663 28.202C24.5908 28.3558 24.7497 28.4781 24.9302 28.5591C25.1377 28.6488 25.3536 28.7176 25.5747 28.7644C25.8051 28.8092 26.0383 28.838 26.2726 28.8506C26.8258 28.8502 27.3688 28.7013 27.8448 28.4195C28.3374 28.0952 28.3374 27.8325 28.3374 27.7052C28.3367 27.5045 28.2638 27.3108 28.1322 27.1593C27.9842 26.9942 27.8093 26.8554 27.615 26.7488C27.4111 26.6433 27.1945 26.5646 26.9704 26.5148C26.7612 26.4707 26.548 26.4487 26.3342 26.4491C25.9657 26.4513 25.5976 26.4225 25.234 26.3629C24.7417 26.2806 24.2644 26.1257 23.8177 25.9031C23.2958 25.6417 22.8354 25.2723 22.4672 24.8194C21.9555 24.2026 21.6714 23.4286 21.6626 22.6273C21.6742 22.0191 21.8423 21.4243 22.1508 20.9001C22.4593 20.3759 22.8977 19.9401 23.4237 19.6346C23.915 19.33 24.4531 19.1081 25.0164 18.9778V18.2923C25.0164 17.9471 25.1535 17.6162 25.3976 17.3721C25.6416 17.1281 25.9726 16.991 26.3177 16.991C26.6629 16.991 26.9939 17.1281 27.2379 17.3721C27.482 17.6162 27.6191 17.9471 27.6191 18.2923V19.0148C27.9869 19.1061 28.3456 19.2311 28.6905 19.3883C29.168 19.6036 29.6031 19.9025 29.9754 20.2709C30.0964 20.3917 30.1925 20.5351 30.2581 20.693C30.3237 20.8509 30.3575 21.0201 30.3577 21.1911C30.3579 21.362 30.3244 21.5314 30.2592 21.6894C30.1939 21.8474 30.0982 21.991 29.9774 22.1121C29.8567 22.2331 29.7133 22.3291 29.5554 22.3947C29.3975 22.4603 29.2283 22.4942 29.0573 22.4944C28.8863 22.4946 28.717 22.4611 28.559 22.3959C28.4009 22.3306 28.2573 22.2349 28.1363 22.1141C27.9875 21.967 27.8138 21.8474 27.6232 21.7611C27.4113 21.6611 27.1898 21.5827 26.9622 21.5271L26.8925 21.5148C26.7147 21.4688 26.5335 21.4372 26.3506 21.4204C25.8101 21.4182 25.2788 21.5599 24.8112 21.8309C24.6585 21.9043 24.5277 22.0165 24.4319 22.1562C24.3361 22.2959 24.2786 22.4584 24.2652 22.6273C24.2769 22.8312 24.3547 23.0257 24.4869 23.1814C24.6219 23.3467 24.7896 23.4823 24.9795 23.5796C25.1961 23.6853 25.4271 23.7586 25.665 23.7972C25.8862 23.8339 26.11 23.8517 26.3342 23.8506C26.7342 23.8495 27.1333 23.8908 27.5246 23.9737C27.9772 24.0733 28.4148 24.2321 28.826 24.4458C29.3039 24.7031 29.7321 25.0437 30.0903 25.4516C30.6369 26.0753 30.9388 26.876 30.9401 27.7052ZM43.9122 29.6798H34.3719V32.931H43.9122V29.6798ZM37.578 21.8268H47.5534L37.578 11.9089V21.8268Z" fill="#50AC97" stroke="#FF0000" stroke-width="2" mask="url(#path-1-inside-1_3_74)"/>
</svg>
