<svg width="69" height="69" viewBox="0 0 69 69" fill="none" xmlns="http://www.w3.org/2000/svg">
<mask id="path-1-inside-1_3_70" fill="white">
<path fill-rule="evenodd" clip-rule="evenodd" d="M36.2051 66.8665L36.1735 66.8723L35.9694 66.9729L35.9119 66.9844L35.8716 66.9729L35.6675 66.8723C35.6368 66.8627 35.6138 66.8675 35.5985 66.8866L35.587 66.9154L35.5381 68.1459L35.5525 68.2034L35.5813 68.2408L35.8802 68.4535L35.9234 68.465L35.9579 68.4535L36.2569 68.2408L36.2914 68.1948L36.3029 68.1459L36.254 66.9183C36.2463 66.8876 36.23 66.8703 36.2051 66.8665ZM36.967 66.5416L36.9296 66.5474L36.3977 66.8148L36.369 66.8435L36.3604 66.8751L36.4121 68.1114L36.4265 68.1459L36.4495 68.166L37.0274 68.4334C37.0638 68.443 37.0916 68.4353 37.1107 68.4104L37.1222 68.3701L37.0245 66.6049C37.0149 66.5704 36.9957 66.5493 36.967 66.5416ZM34.9114 66.5474C34.8987 66.5397 34.8836 66.5372 34.8691 66.5404C34.8546 66.5436 34.842 66.5523 34.8337 66.5646L34.8165 66.6049L34.7188 68.3701C34.7207 68.4046 34.737 68.4276 34.7676 68.4391L34.8107 68.4334L35.3886 68.166L35.4174 68.143L35.4289 68.1114L35.4777 66.8751L35.4691 66.8406L35.4404 66.8119L34.9114 66.5474Z"/>
</mask>
<path d="M36.2051 66.8665L36.3572 65.8781L36.1913 65.8526L36.0262 65.8827L36.2051 66.8665ZM36.1735 66.8723L35.9946 65.8884L35.8569 65.9134L35.7313 65.9753L36.1735 66.8723ZM35.9694 66.9729L36.1655 67.9535L36.294 67.9278L36.4115 67.8698L35.9694 66.9729ZM35.9119 66.9844L35.6372 67.9459L35.8703 68.0125L36.108 67.965L35.9119 66.9844ZM35.8716 66.9729L35.4295 67.8698L35.5103 67.9097L35.5969 67.9344L35.8716 66.9729ZM35.6675 66.8723L36.1097 65.9753L36.0399 65.941L35.9658 65.9178L35.6675 66.8723ZM35.5985 66.8866L34.8176 66.2619L34.725 66.3777L34.67 66.5153L35.5985 66.8866ZM35.587 66.9154L34.6585 66.544L34.5946 66.7038L34.5878 66.8757L35.587 66.9154ZM35.5381 68.1459L34.5389 68.1062L34.5332 68.2494L34.568 68.3884L35.5381 68.1459ZM35.5525 68.2034L34.5824 68.4459L34.6329 68.648L34.7599 68.8131L35.5525 68.2034ZM35.5813 68.2408L34.7886 68.8505L34.8797 68.9689L35.0015 69.0556L35.5813 68.2408ZM35.8802 68.4535L35.3005 69.2683L35.4479 69.3732L35.6226 69.4198L35.8802 68.4535ZM35.9234 68.465L35.6657 69.4313L35.9553 69.5085L36.2396 69.4137L35.9234 68.465ZM35.9579 68.4535L36.2741 69.4022L36.4159 69.3549L36.5376 69.2683L35.9579 68.4535ZM36.2569 68.2408L36.8366 69.0556L36.9635 68.9653L37.0569 68.8407L36.2569 68.2408ZM36.2914 68.1948L37.0914 68.7947L37.2169 68.6274L37.2648 68.4238L36.2914 68.1948ZM36.3029 68.1459L37.2763 68.3749L37.3075 68.2423L37.3021 68.1061L36.3029 68.1459ZM36.254 66.9183L37.2532 66.8785L37.2491 66.7756L37.2241 66.6757L36.254 66.9183ZM36.967 66.5416L37.2247 65.5754L37.0222 65.5214L36.815 65.5533L36.967 66.5416ZM36.9296 66.5474L36.7776 65.559L36.6216 65.583L36.4805 65.6539L36.9296 66.5474ZM36.3977 66.8148L35.9486 65.9213L35.8046 65.9937L35.6906 66.1077L36.3977 66.8148ZM36.369 66.8435L35.6619 66.1364L35.4741 66.3242L35.4042 66.5804L36.369 66.8435ZM36.3604 66.8751L35.3956 66.6121L35.3548 66.7618L35.3613 66.917L36.3604 66.8751ZM36.4121 68.1114L35.413 68.1532L35.4205 68.3314L35.4891 68.496L36.4121 68.1114ZM36.4265 68.1459L35.5034 68.5305L35.5929 68.7453L35.768 68.8985L36.4265 68.1459ZM36.4495 68.166L35.791 68.9186L35.8992 69.0132L36.0296 69.0736L36.4495 68.166ZM37.0274 68.4334L36.6075 69.3409L36.6875 69.378L36.7729 69.4005L37.0274 68.4334ZM37.1107 68.4104L37.9034 69.0201L38.0198 68.8687L38.0723 68.6851L37.1107 68.4104ZM37.1222 68.3701L38.0838 68.6448L38.13 68.483L38.1207 68.3148L37.1222 68.3701ZM37.0245 66.6049L38.023 66.5496L38.017 66.4415L37.988 66.3372L37.0245 66.6049ZM34.9114 66.5474L34.3931 67.4026L34.4278 67.4236L34.4642 67.4418L34.9114 66.5474ZM34.8337 66.5646L34.002 66.0094L33.9509 66.086L33.9146 66.1707L34.8337 66.5646ZM34.8165 66.6049L33.8974 66.2109L33.8278 66.3733L33.818 66.5496L34.8165 66.6049ZM34.7188 68.3701L33.7203 68.3148L33.7172 68.3702L33.7203 68.4256L34.7188 68.3701ZM34.7676 68.4391L34.4165 69.3755L34.6513 69.4635L34.8998 69.4304L34.7676 68.4391ZM34.8107 68.4334L34.943 69.4246L35.0932 69.4046L35.2307 69.3409L34.8107 68.4334ZM35.3886 68.166L35.8085 69.0736L35.9186 69.0227L36.0133 68.9469L35.3886 68.166ZM35.4174 68.143L36.042 68.9239L36.2612 68.7486L36.3572 68.4847L35.4174 68.143ZM35.4289 68.1114L36.3687 68.4531L36.4219 68.3066L36.4281 68.1509L35.4289 68.1114ZM35.4777 66.8751L36.477 66.9146L36.4826 66.7715L36.4479 66.6326L35.4777 66.8751ZM35.4691 66.8406L36.4393 66.5981L36.3721 66.3294L36.1762 66.1335L35.4691 66.8406ZM35.4404 66.8119L36.1475 66.1048L36.0327 65.99L35.8876 65.9175L35.4404 66.8119ZM36.0262 65.8827L35.9946 65.8884L36.3524 67.8561L36.3841 67.8504L36.0262 65.8827ZM35.7313 65.9753L35.5272 66.0759L36.4115 67.8698L36.6157 67.7692L35.7313 65.9753ZM35.7733 65.9923L35.7158 66.0038L36.108 67.965L36.1655 67.9535L35.7733 65.9923ZM36.1866 66.0229L36.1463 66.0114L35.5969 67.9344L35.6372 67.9459L36.1866 66.0229ZM36.3138 66.0759L36.1097 65.9753L35.2253 67.7692L35.4295 67.8698L36.3138 66.0759ZM35.9658 65.9178C35.845 65.88 35.6517 65.8421 35.4233 65.8897C35.1734 65.9417 34.9635 66.0796 34.8176 66.2619L36.3794 67.5113C36.2488 67.6745 36.0581 67.8004 35.8312 67.8477C35.6258 67.8904 35.4594 67.8549 35.3692 67.8267L35.9658 65.9178ZM34.67 66.5153L34.6585 66.544L36.5155 67.2867L36.527 67.258L34.67 66.5153ZM34.5878 66.8757L34.5389 68.1062L36.5373 68.1856L36.5862 66.9551L34.5878 66.8757ZM34.568 68.3884L34.5824 68.4459L36.5226 67.9609L36.5083 67.9033L34.568 68.3884ZM34.7599 68.8131L34.7886 68.8505L36.3739 67.6311L36.3451 67.5937L34.7599 68.8131ZM35.0015 69.0556L35.3005 69.2683L36.46 67.6387L36.161 67.426L35.0015 69.0556ZM35.6226 69.4198L35.6657 69.4313L36.181 67.4988L36.1379 67.4873L35.6226 69.4198ZM36.2396 69.4137L36.2741 69.4022L35.6417 67.5048L35.6072 67.5163L36.2396 69.4137ZM36.5376 69.2683L36.8366 69.0556L35.6771 67.426L35.3781 67.6387L36.5376 69.2683ZM37.0569 68.8407L37.0914 68.7947L35.4914 67.5948L35.4569 67.6408L37.0569 68.8407ZM37.2648 68.4238L37.2763 68.3749L35.3295 67.9169L35.318 67.9657L37.2648 68.4238ZM37.3021 68.1061L37.2532 66.8785L35.2548 66.958L35.3037 68.1857L37.3021 68.1061ZM37.2241 66.6757C37.192 66.5473 37.1217 66.3637 36.9631 66.1957C36.7922 66.0148 36.5748 65.9116 36.3572 65.8781L36.0531 67.8549C35.8604 67.8252 35.6635 67.7326 35.509 67.5689C35.3666 67.4182 35.3083 67.2585 35.2839 67.1608L37.2241 66.6757ZM36.815 65.5533L36.7776 65.559L37.0816 67.5358L37.119 67.53L36.815 65.5533ZM36.4805 65.6539L35.9486 65.9213L36.8469 67.7082L37.3788 67.4408L36.4805 65.6539ZM35.6906 66.1077L35.6619 66.1364L37.0761 67.5506L37.1049 67.5219L35.6906 66.1077ZM35.4042 66.5804L35.3956 66.6121L37.3252 67.1382L37.3338 67.1066L35.4042 66.5804ZM35.3613 66.917L35.413 68.1532L37.4112 68.0696L37.3595 66.8333L35.3613 66.917ZM35.4891 68.496L35.5034 68.5305L37.3496 67.7612L37.3352 67.7267L35.4891 68.496ZM35.768 68.8985L35.791 68.9186L37.108 67.4134L37.085 67.3933L35.768 68.8985ZM36.0296 69.0736L36.6075 69.3409L37.4473 67.5258L36.8694 67.2584L36.0296 69.0736ZM36.7729 69.4005C36.9109 69.4368 37.1129 69.4619 37.3414 69.3988C37.5839 69.3319 37.774 69.1883 37.9034 69.0201L36.3181 67.8007C36.4283 67.6574 36.595 67.53 36.8096 67.4708C37.0103 67.4155 37.1803 67.4396 37.2819 67.4663L36.7729 69.4005ZM38.0723 68.6851L38.0838 68.6448L36.1607 68.0954L36.1492 68.1357L38.0723 68.6851ZM38.1207 68.3148L38.023 66.5496L36.026 66.6602L36.1238 68.4254L38.1207 68.3148ZM37.988 66.3372C37.9062 66.0428 37.6705 65.6943 37.2247 65.5754L36.7093 67.5079C36.5468 67.4645 36.3886 67.374 36.263 67.2359C36.1439 67.1049 36.0876 66.9682 36.061 66.8725L37.988 66.3372ZM35.4297 65.6922C35.1965 65.5509 34.918 65.5052 34.6522 65.5642L35.086 67.5166C34.8491 67.5693 34.6009 67.5285 34.3931 67.4026L35.4297 65.6922ZM34.6522 65.5642C34.3863 65.6233 34.1533 65.7828 34.002 66.0094L35.6655 67.1198C35.5306 67.3219 35.323 67.464 35.086 67.5166L34.6522 65.5642ZM33.9146 66.1707L33.8974 66.2109L35.7356 66.9988L35.7529 66.9586L33.9146 66.1707ZM33.818 66.5496L33.7203 68.3148L35.7172 68.4254L35.815 66.6602L33.818 66.5496ZM33.7203 68.4256C33.7293 68.5882 33.7772 68.7948 33.9164 68.9913C34.058 69.1912 34.245 69.3112 34.4165 69.3755L35.1187 67.5028C35.2596 67.5556 35.4231 67.6583 35.5484 67.8352C35.6713 68.0087 35.7101 68.1866 35.7172 68.3147L33.7203 68.4256ZM34.8998 69.4304L34.943 69.4246L34.6785 67.4422L34.6354 67.4479L34.8998 69.4304ZM35.2307 69.3409L35.8085 69.0736L34.9687 67.2584L34.3908 67.5258L35.2307 69.3409ZM36.0133 68.9469L36.042 68.9239L34.7927 67.3621L34.764 67.3851L36.0133 68.9469ZM36.3572 68.4847L36.3687 68.4531L34.4891 67.7697L34.4776 67.8013L36.3572 68.4847ZM36.4281 68.1509L36.477 66.9146L34.4785 66.8356L34.4297 68.0719L36.4281 68.1509ZM36.4479 66.6326L36.4393 66.5981L34.499 67.0832L34.5076 67.1177L36.4479 66.6326ZM36.1762 66.1335L36.1475 66.1048L34.7333 67.519L34.762 67.5477L36.1762 66.1335ZM35.8876 65.9175L35.3586 65.653L34.4642 67.4418L34.9932 67.7063L35.8876 65.9175Z" fill="#F70000" mask="url(#path-1-inside-1_3_70)"/>
<path d="M56.4677 14.3252L56.4678 14.3252C57.4687 14.7004 58.3312 15.3722 58.9401 16.2508C59.549 17.1294 59.8751 18.1729 59.875 19.2419V19.2419V34.6606C59.8751 39.3731 58.5629 43.9925 56.0855 48.0012C53.608 52.0099 50.0632 55.2496 45.8483 57.3571L36.2056 62.1755L36.2055 62.1756C35.676 62.4405 35.092 62.5783 34.5 62.5783C33.908 62.5783 33.324 62.4405 32.7945 62.1756L32.7945 62.1756L23.1517 57.3542C18.9368 55.2467 15.392 52.007 12.9145 47.9983C10.4371 43.9896 9.1249 39.3702 9.125 34.6577L9.125 19.2448L9.125 19.2445C9.12433 18.1751 9.45025 17.131 10.0592 16.2519C10.6681 15.3728 11.5309 14.7006 12.5323 14.3252L12.5323 14.3252L32.6573 6.77836C33.8454 6.33299 35.1546 6.33299 36.3427 6.77836L56.4677 14.3252ZM34.5 22.4996H34.5C33.1242 22.4996 31.7869 22.9536 30.6954 23.7912C29.6039 24.6287 28.8193 25.803 28.4632 27.1319C28.1071 28.4608 28.1995 29.8701 28.7259 31.1412C29.215 32.3219 30.0533 33.3221 31.125 34.0098V43.1246C31.125 44.0197 31.4806 44.8781 32.1135 45.511C32.7464 46.144 33.6049 46.4996 34.5 46.4996C35.3951 46.4996 36.2536 46.144 36.8865 45.511C37.5194 44.8781 37.875 44.0197 37.875 43.1246V34.0098C38.9467 33.3221 39.785 32.3219 40.2741 31.1412C40.8005 29.8701 40.8929 28.4608 40.5368 27.1319C40.1807 25.803 39.3961 24.6287 38.3046 23.7912C37.2131 22.9536 35.8758 22.4996 34.5 22.4996Z" fill="#50AC97" stroke="#F70000"/>
</svg>
