<svg width="48" height="48" viewBox="0 0 48 48" fill="none" xmlns="http://www.w3.org/2000/svg">
<path d="M5 42.75C5 42.6119 5.11193 42.5 5.25 42.5C5.38807 42.5 5.5 42.6119 5.5 42.75C5.5 42.8881 5.38807 43 5.25 43C5.11193 43 5 42.8881 5 42.75Z" fill="#7FC1B1" stroke="#FFEA00" stroke-width="2"/>
<path d="M7.5 17.5C8.60613 17.5 9.5 18.3934 9.5 19.5V45C9.5 46.1054 8.6058 47 7.5 47H3C1.8942 47 1 46.1054 1 45V19.5C1 18.3934 1.89387 17.5 3 17.5H7.5ZM2 42.75C2 44.5441 3.45475 46 5.25 46C7.04525 46 8.5 44.5441 8.5 42.75C8.5 40.954 7.04482 39.5 5.25 39.5C3.45518 39.5 2 40.954 2 42.75Z" fill="#7FC1B1" stroke="#FFEA00" stroke-width="2"/>
<path d="M29.7561 16.3896L29.6327 17.5H30.75H43.5C45.4326 17.5 47 19.0669 47 21C47 22.4995 46.0527 23.7796 44.719 24.2754L43.2021 24.8394L44.3851 25.9437C45.0723 26.5852 45.5 27.4923 45.5 28.5C45.5 29.9995 44.5527 31.2796 43.219 31.7754L41.7021 32.3394L42.8851 33.4437C43.5723 34.0852 44 34.9923 44 36C44 37.4995 43.0527 38.7796 41.719 39.2754L40.2021 39.8394L41.3851 40.9437C42.0723 41.5852 42.5 42.4923 42.5 43.5C42.5 45.4318 40.9324 47 39 47H21.75C20.3294 47 17.9082 46.9136 15.8738 44.825L15.8734 44.8246C14.8969 43.8232 13.8965 43.2481 13 42.9211V21.9157C13.6733 21.7983 14.4106 21.5394 15.1515 21.0254C16.2701 20.2492 17.3094 18.952 18.1684 16.8957L24.1638 3.40614L24.1669 3.39914L24.1699 3.39209C24.5265 2.55552 24.8427 1.95697 25.2242 1.56115C25.5587 1.21406 25.9644 1 26.6257 1H29.6265C30.6381 1 31.3575 1.79192 31.2552 2.89791L29.7561 16.3896Z" fill="#7FC1B1" stroke="#FFEA00" stroke-width="2"/>
</svg>
